<!-- icon666.com - MILLIONS vector ICONS FREE --><svg version="1.1" id="Layer_1" xmlns="http://www.w3.org/2000/svg" xmlns:xlink="http://www.w3.org/1999/xlink" x="0px" y="0px" viewBox="0 0 398.982 398.982" style="enable-background:new 0 0 398.982 398.982;" xml:space="preserve"><g><polygon points="16.491,0 16.491,76.499 56.491,76.499 56.491,50 179.491,50 179.491,358.982 125,358.982 125,398.982 273.982,398.982 273.982,358.982 219.491,358.982 219.491,50 342.491,50 342.491,76.499 382.491,76.499 382.491,0 " fill="#000000" style="fill: rgb(255, 255, 255);"></polygon><path d="M337.355,165.156c0,11.64-15.765,25.309-33,31.113v-72.778h-40v196.24h40v-80.002c16.26,2.917,33,15.601,33,23.942v56.06 h40v-56.06c0-17.614-9.866-34.25-27.822-47.01c17.982-14.316,27.822-32.458,27.822-51.505v-41.665h-40V165.156z" fill="#000000" style="fill: rgb(255, 255, 255);"></path></g></svg>