<svg fill="#ffffff" height="200px" width="200px" version="1.1" id="Capa_1" xmlns="http://www.w3.org/2000/svg" xmlns:xlink="http://www.w3.org/1999/xlink" viewBox="0 0 512 512" xml:space="preserve" stroke="#ffffff"><g id="SVGRepo_bgCarrier" stroke-width="0"></g><g id="SVGRepo_tracerCarrier" stroke-linecap="round" stroke-linejoin="round"></g><g id="SVGRepo_iconCarrier"> <g> <path d="M502.625,105.375l-96-96c-12.5-12.5-32.75-12.5-45.25,0l-36.688,36.688l141.25,141.25l36.688-36.688 C515.125,138.125,515.125,117.875,502.625,105.375z"></path> <path d="M0.953,472.234c-2.719,10.906,0.469,22.438,8.422,30.391C15.453,508.703,23.625,512,32,512 c2.578,0,5.187-0.312,7.766-0.953l102.922-25.734l-116-116L0.953,472.234z"></path> <path d="M361.375,129l-59.313-59.313c0,0-263.313,263.396-265.063,265.313l59,59.375L361.375,129z"></path> <path d="M118.625,416L178,475c1.938-1.875,265.313-265.063,265.313-265.063L384,150.625L118.625,416z"></path> </g> </g></svg>