<!-- icon666.com - MILLIONS vector ICONS FREE --><svg version="1.1" id="Capa_1" xmlns="http://www.w3.org/2000/svg" xmlns:xlink="http://www.w3.org/1999/xlink" x="0px" y="0px" viewBox="0 0 512.005 512.005" style="enable-background:new 0 0 512.005 512.005;" xml:space="preserve"><g><g><g><path d="M383.168,291.715c-7.856-6.34-19.368-5.092-25.718,2.774c-6.331,7.876-5.092,19.388,2.784,25.718 c33.268,26.778,41.52,56.152,26.729,95.255c-8.421,22.231-27.759,39.449-55.935,49.772 c-54.988,20.165-129.978,10.386-203.77-25.876l10.178-13.504c6.083-8.054,4.458-19.527-3.596-25.599 c-8.074-6.093-19.536-4.488-25.619,3.596l-23.242,30.842c-0.12,0.162-0.249,0.315-0.364,0.483l-22.719,30.148 c-6.083,8.054-4.458,19.527,3.596,25.599c3.299,2.497,7.153,3.695,10.997,3.695c5.548,0,11.026-2.516,14.623-7.301l13.758-18.253 c55.406,28.26,112.369,42.941,163.576,42.941c27.016-0.01,52.437-4.092,75.184-12.413c37.894-13.899,65.435-39.182,77.551-71.181 C441.599,374.428,428.809,328.44,383.168,291.715z" fill="#000000" style="fill: rgb(63, 81, 181);"></path><path d="M445.106,237.643h-168.58c-5.646-1.965-11.465-3.915-17.462-5.835c-62.136-19.982-100.635-52.17-108.411-90.648 c-5.657-28.047,5.726-57.47,30.474-78.73c53.612-46.116,139.366-24.124,186.692,13.855l-13.083,17.362 c-6.083,8.064-4.458,19.536,3.596,25.609c3.299,2.487,7.153,3.685,10.997,3.685c5.548,0,11.016-2.516,14.623-7.282l46.325-61.472 c6.083-8.064,4.458-19.536-3.596-25.609c-8.074-6.083-19.536-4.478-25.619,3.596l-11.177,14.832 C326.423-3.887,222.347-21.311,157.27,34.699c-34.922,29.998-50.803,72.509-42.481,113.712 c4.521,22.361,19.667,58.65,68.689,89.232H66.899c-10.105,0-18.288,8.193-18.288,18.288s8.183,18.288,18.288,18.288h378.197 c10.105,0,18.298-8.193,18.298-18.288C463.394,245.836,455.211,237.643,445.106,237.643z" fill="#000000" style="fill: rgb(63, 81, 181);"></path></g></g></g></svg>