<!-- icon666.com - MILLIONS vector ICONS FREE --><svg version="1.1" id="Capa_1" xmlns="http://www.w3.org/2000/svg" xmlns:xlink="http://www.w3.org/1999/xlink" x="0px" y="0px" viewBox="0 0 484.907 484.907" style="enable-background:new 0 0 484.907 484.907;" xml:space="preserve"><g><g><polygon points="210.56,166.933 183.68,166.933 162.347,166.933 135.467,166.933 114.133,166.933 114.133,188.267 114.133,200.64 135.467,200.64 135.467,188.267 162.347,188.267 162.347,296.213 145.067,296.213 145.067,317.547 162.347,317.547 183.68,317.547 200.533,317.547 200.533,296.213 183.68,296.213 183.68,188.267 210.56,188.267 210.56,200.64 231.893,200.64 231.893,188.267 231.893,166.933 "></polygon></g></g><g><g><polygon points="349.653,166.933 322.773,166.933 301.44,166.933 274.56,166.933 253.227,166.933 253.227,188.267 253.227,200.64 274.56,200.64 274.56,188.267 301.44,188.267 301.44,296.213 284.587,296.213 284.587,317.547 301.44,317.547 322.773,317.547 339.627,317.547 339.627,296.213 322.773,296.213 322.773,188.267 349.653,188.267 349.653,200.64 370.987,200.64 370.987,188.267 370.987,166.933 "></polygon></g></g><g><g><path d="M410.24,0.107H74.667C33.513,0.106,0.118,33.406,0,74.56v335.787C0.118,451.501,33.513,484.8,74.667,484.8H410.24 c41.154,0,74.549-33.299,74.667-74.453V74.56C484.789,33.406,451.394,0.106,410.24,0.107z M463.573,410.347 c-0.117,29.372-23.961,53.12-53.333,53.12H74.667c-29.372,0-53.216-23.748-53.333-53.12V74.56 c0.117-29.372,23.961-53.12,53.333-53.12H410.24c29.372,0,53.216,23.748,53.333,53.12V410.347z"></path></g></g></svg>